<svg width="329" height="656" viewBox="0 0 329 656" fill="none" xmlns="http://www.w3.org/2000/svg">
<path d="M198.058 24.518C205.471 28.5167 210.324 34.3062 213.5 41.984C213.904 45.9268 213.904 45.9268 213.828 49.9653C213.817 51.3025 213.806 52.6398 213.794 54.0175C213.5 57.728 213.5 57.728 211.75 62.976C212.905 62.976 214.06 62.976 215.25 62.976C214.796 73.4023 213.91 79.5965 206.5 87.4667C204.291 94.0925 203.704 97.9862 204.75 104.96C214.651 117.225 227.396 120.667 242.044 124.466C254.158 127.987 260.909 132.783 267.75 143.445C271.539 150.467 274.774 157.657 277.922 164.984C279.571 168.732 281.223 172.479 282.878 176.225C283.588 177.867 284.299 179.51 285.03 181.202C287.013 185.735 287.013 185.735 290.5 190.677C291.265 193.912 292.026 197.147 292.763 200.387C294.787 207.394 297.921 213.92 300.959 220.539C302.928 226.171 303.325 230.237 302.75 236.16C301.595 237.892 300.44 239.624 299.25 241.408C298.095 241.408 296.94 241.408 295.75 241.408C295.919 242.431 296.087 243.454 296.26 244.509C297.016 249.158 297.751 253.811 298.485 258.464C298.882 260.879 298.882 260.879 299.288 263.343C299.652 265.677 299.652 265.677 300.023 268.058C300.252 269.487 300.481 270.916 300.717 272.389C301.21 279.353 299.002 284.322 295.75 290.389C295.646 289.405 295.542 288.42 295.435 287.406C292.011 251.557 292.011 251.557 273 222.165C271.268 223.031 271.268 223.031 269.5 223.915C270.387 225.126 270.387 225.126 271.291 226.361C272.072 227.502 272.852 228.643 273.657 229.819C274.428 230.915 275.2 232.011 275.994 233.14C282.042 245.926 282.527 260.952 283.719 274.864C283.87 276.537 284.021 278.21 284.177 279.934C284.543 284.002 284.901 288.07 285.25 292.139C284.095 291.561 282.94 290.984 281.75 290.389C280.595 291.544 279.44 292.698 278.25 293.888C278.172 292.779 278.093 291.67 278.012 290.528C277.794 258.509 277.794 258.509 267.033 229.627C264.091 227.026 264.091 227.026 259 225.664C260.733 228.262 260.733 228.262 262.5 230.912C262.842 235.251 262.842 235.251 262.719 239.987C262.688 241.563 262.656 243.139 262.623 244.763C262.583 245.965 262.542 247.167 262.5 248.405C258.458 248.983 254.415 249.56 250.25 250.155C250.629 252.434 250.629 252.434 251.016 254.76C251.341 256.776 251.666 258.792 252 260.869C252.325 262.858 252.65 264.847 252.985 266.896C253.697 272.479 253.887 277.773 253.75 283.392C250.285 285.124 250.285 285.124 246.75 286.891C248.886 298.243 251.466 309.391 254.475 320.545C255.476 325.261 255.824 329.32 255.5 334.123C254.923 334.7 254.345 335.277 253.75 335.872C253.721 339.84 253.817 343.81 253.962 347.776C254.048 350.319 254.134 352.862 254.22 355.405C254.269 356.749 254.318 358.094 254.368 359.479C254.616 366.458 254.823 373.438 255.029 380.418C255.091 382.528 255.091 382.528 255.155 384.681C255.535 397.821 255.822 410.958 255.938 424.104C255.975 426.058 256.012 428.011 256.05 430.024C256.058 431.821 256.066 433.617 256.075 435.468C256.091 437.02 256.107 438.573 256.124 440.172C255.371 445.19 253.335 447.386 250.25 451.328C250.097 455.889 250.186 460.135 250.469 464.667C251.01 481.747 246.763 496.45 241.5 512.555C237.336 525.549 233.886 537.422 232.75 551.04C232.173 551.617 231.595 552.195 231 552.789C229.657 563.092 231.218 571.867 234.5 581.653C239.659 597.27 239.947 609.59 232.75 624.512C226.503 628.675 222.97 628.951 215.64 628.796C211.75 628.011 211.75 628.011 206.61 623.309C200.478 613.464 199.182 606.597 199.719 595.101C199.986 585.254 199.287 578.34 194.073 569.893C188.618 559.107 193.56 544.646 196 533.547C196.636 530.233 197.256 526.917 197.86 523.597C198.133 522.111 198.406 520.625 198.687 519.094C199.09 516.723 199.09 516.723 199.5 514.304C199.967 511.632 199.967 511.632 200.444 508.906C201.534 499.65 201.711 490.489 201.797 481.176C201.848 479.346 201.899 477.516 201.951 475.631C202.036 465.258 201.147 458.039 195.914 449.033C193.647 445.009 192.924 441.228 192.282 436.677C191.903 434.046 191.903 434.046 191.516 431.361C189.981 418.785 188.567 406.2 187.25 393.6C183.766 427.366 181.472 460.882 181.563 494.843C181.565 496.36 181.567 497.877 181.568 499.44C181.58 503.771 181.607 508.101 181.645 512.432C181.653 513.708 181.66 514.985 181.668 516.3C181.766 523.397 182.506 530.069 183.75 537.045C183.972 540.178 184.136 543.316 184.243 546.455C184.307 548.201 184.372 549.948 184.438 551.747C184.5 553.57 184.562 555.393 184.625 557.272C185.126 570.928 185.773 584.498 187.1 598.101C187.15 599.312 187.199 600.523 187.25 601.771C186.673 602.348 186.095 602.925 185.5 603.52C185.086 608.23 184.762 612.905 184.516 617.624C184.403 619.615 184.403 619.615 184.287 621.645C184.101 624.933 183.925 628.221 183.75 631.509C185.966 631.489 188.181 631.469 190.463 631.448C212.047 631.317 233.599 631.66 255.172 632.275C257.088 632.326 257.088 632.326 259.042 632.379C297.863 633.44 297.863 633.44 304.5 636.757C304.5 637.912 304.5 639.066 304.5 640.256C235.976 655.502 154.709 646.36 84.9847 644.848C83.5531 644.821 82.1214 644.794 80.6464 644.767C64.594 644.453 49.0301 643.521 33.2503 640.256C33.2503 639.101 33.2503 637.947 33.2503 636.757C38.0945 635.143 41.4212 634.696 46.4522 634.488C48.059 634.418 49.6658 634.348 51.3212 634.276C53.9216 634.175 53.9216 634.175 56.5745 634.072C59.2583 633.959 59.2583 633.959 61.9962 633.844C65.7855 633.686 69.5749 633.532 73.3645 633.381C79.1409 633.151 84.9168 632.91 90.6927 632.668C94.3773 632.515 98.0618 632.364 101.746 632.213C104.326 632.107 104.326 632.107 106.957 631.998C115.646 631.654 124.304 631.432 133 631.509C132.748 629.994 132.495 628.479 132.235 626.917C133 621.013 133 621.013 135.851 618.717C137.004 617.96 138.156 617.202 139.344 616.421C142.735 614.017 142.735 614.017 145.25 610.517C145.355 605.959 145.355 605.959 144.136 601.005C143.762 599.132 143.388 597.259 143.003 595.329C142.59 593.414 142.176 591.499 141.75 589.525C141.055 586.014 140.365 582.502 139.679 578.988C139.322 577.197 138.966 575.405 138.598 573.559C133.391 546.985 130.38 520.469 128.07 493.506C127.61 488.196 127.128 482.888 126.647 477.581C126.021 470.653 125.409 463.724 124.797 456.795C124.68 455.479 124.563 454.163 124.442 452.807C124.11 449.039 123.786 445.271 123.464 441.502C123.278 439.344 123.091 437.186 122.899 434.963C122.472 428.141 122.434 421.425 122.5 414.592C120.768 414.592 119.035 414.592 117.25 414.592C117.185 415.533 117.119 416.473 117.052 417.442C115.85 431.783 113.049 445.765 110.25 459.856C109.767 462.33 109.283 464.803 108.801 467.277C105.008 486.636 105.008 486.636 103.25 493.312C92.0832 497.319 81.5663 497.334 69.7816 497.248C67.907 497.262 66.0323 497.275 64.1009 497.289C61.3837 497.282 61.3837 497.282 58.6117 497.275C56.9759 497.271 55.3401 497.267 53.6547 497.263C48.2181 496.735 44.882 496.292 40.2503 493.312C38.5852 488.589 37.5871 484.628 36.7777 479.748C36.3946 477.715 36.3946 477.715 36.0038 475.64C35.1952 471.296 34.4417 466.944 33.6878 462.589C33.1558 459.704 32.6203 456.819 32.0814 453.935C29.6726 440.839 27.6209 427.842 26.2503 414.592C24.5178 414.015 22.7853 413.437 21.0003 412.843C19.2669 397.825 25.4291 385.69 34.556 373.913C40.4827 367.593 45.5859 364.013 54.2503 362.112C53.3841 360.38 53.3841 360.38 52.5003 358.613C51.6981 350.11 53.1076 346.233 58.1878 339.48C69.1459 322.928 71.5044 304.991 74.01 285.705C76.9381 263.31 81.7824 244.065 91.5763 223.673C93.1459 219.896 93.1459 219.896 92.7503 213.419C91.0178 212.264 89.2853 211.11 87.5003 209.92C90.3899 196.44 93.6158 183.051 97.092 169.711C97.9506 166.38 98.7663 163.038 99.5794 159.695C100.105 157.724 100.631 155.753 101.172 153.723C101.617 151.986 102.061 150.25 102.519 148.461C109.214 134.928 122.966 129.822 136.254 124.493C143.278 121.454 147.549 118.939 151.854 112.497C155.75 106.709 155.75 106.709 159.494 105.473C160.568 105.304 161.643 105.134 162.75 104.96C161.884 102.146 161.884 102.146 161 99.2747C159.25 92.7147 159.25 92.7147 159.25 85.7173C158.131 85.2483 157.013 84.7792 155.86 84.296C152.25 82.2187 152.25 82.2187 150.5 76.9707C150.174 70.6979 150.426 64.4412 150.61 58.1653C150.613 56.456 150.616 54.7467 150.62 52.9857C150.957 42.3507 152.49 36.2399 160.02 28.5578C171.707 18.6369 184.523 18.8828 198.058 24.518Z" fill="#050505"/>
<path d="M269.5 220.416C275.616 222.065 277.909 223.428 281.6 228.691C288.227 242.077 292.309 254.12 294.52 268.912C295.783 274.799 297.755 278.387 301 283.392C304.195 292.102 304.884 300.425 304.5 309.632C303.424 309.824 302.348 310.015 301.239 310.213C299.825 310.49 298.41 310.768 296.953 311.053C295.552 311.317 294.151 311.581 292.708 311.853C288.273 313.285 286.634 315.035 283.5 318.379C278.872 319.921 276.009 320.411 271.25 320.456C269.463 320.493 269.463 320.493 267.641 320.531C264.25 320.128 264.25 320.128 259 316.629C258.376 312.578 258.376 312.578 258.426 307.521C258.434 305.672 258.442 303.824 258.45 301.92C258.487 299.955 258.524 297.99 258.562 295.965C258.582 293.986 258.601 292.006 258.621 289.966C258.797 276.643 259.274 263.405 260.75 250.155C257.285 250.155 253.82 250.155 250.25 250.155C250.25 249.577 250.25 249 250.25 248.405C254.292 248.405 258.335 248.405 262.5 248.405C262.252 245.598 261.995 242.792 261.734 239.987C261.592 238.424 261.45 236.861 261.304 235.251C260.864 230.689 260.864 230.689 259 225.664C264.794 226.663 267.5 228.14 271.25 232.661C278.464 250.544 278.514 271.406 280 290.389C281.733 289.523 281.733 289.523 283.5 288.64C282.812 281.711 282.067 274.789 281.312 267.867C281.121 265.927 280.929 263.988 280.731 261.99C279.093 247.338 276.002 234.539 267.75 222.165C268.328 221.588 268.905 221.011 269.5 220.416Z" fill="#252221"/>
<path d="M124.25 220.416C124.828 220.416 125.405 220.416 126 220.416C126.407 233.149 125.61 244.906 123.286 257.425C122.174 264.463 122.15 271.032 122.5 278.144C123.366 279.01 123.366 279.01 124.25 279.893C123.759 286.274 122.998 292.181 121.204 298.333C115.844 317.1 117.051 335.473 117.797 354.787C117.908 358.223 118.016 361.659 118.122 365.095C118.384 373.432 118.682 381.766 119 390.101C118.188 389.018 117.377 387.934 116.54 386.818C108.43 376.023 101.507 368.155 88.9358 362.638C85.7502 360.363 85.7502 360.363 84.6783 356.538C81.6586 334.617 88.7908 318.206 98.5471 299.355C108.051 280.803 114.67 263.612 119 243.157C120.004 238.78 121.035 234.409 122.063 230.037C122.795 226.831 123.525 223.624 124.25 220.416Z" fill="#F8F8F8"/>
<path d="M96.25 369.109C108.222 376.769 115.245 388.205 118.357 402.012C118.569 403.277 118.782 404.542 119 405.845C117.78 405.719 116.559 405.593 115.302 405.463C100.41 404.154 85.5996 403.902 70.6562 403.877C68.6772 403.869 66.6981 403.862 64.659 403.853C51.7734 403.876 39.0718 404.57 26.25 405.845C26.4967 392.53 31.6547 384.361 40.25 374.357C43.8054 370.94 46.1605 369.454 50.75 367.36C54.7969 367.797 54.7969 367.797 59.5 369.109C67.1085 369.661 73.5889 369.695 80.8281 367.141C87.4418 365.085 90.0581 366.078 96.25 369.109Z" fill="#F9F9F9"/>
<path d="M210 202.923C212.873 208.666 210.908 214.163 210 220.416C208.267 220.993 206.535 221.571 204.75 222.165C204.876 223.241 205.003 224.317 205.133 225.425C205.295 226.839 205.458 228.253 205.625 229.709C205.787 231.11 205.95 232.51 206.117 233.953C206.5 237.909 206.5 237.909 206.5 243.157C208.233 243.735 209.965 244.312 211.75 244.907C211.75 246.639 211.75 248.37 211.75 250.155C213.483 250.155 215.215 250.155 217 250.155C219.887 262.278 222.775 274.4 225.75 286.891C230.37 287.468 234.99 288.045 239.75 288.64C240.616 292.104 240.616 292.104 241.5 295.637C231.916 300.453 224.589 301.62 213.938 301.323C211.958 301.309 211.958 301.309 209.938 301.295C204.287 301.215 199.642 300.933 194.25 299.136C194.25 297.981 194.25 296.827 194.25 295.637C192.247 294.88 192.247 294.88 190.203 294.107C185.5 292.139 185.5 292.139 180.25 288.64C181.152 277.272 182.817 266.489 185.5 255.403C186.655 255.403 187.81 255.403 189 255.403C189.129 253.772 189.257 252.142 189.39 250.462C190.729 241.116 194.731 232.82 198.516 224.243C199.23 222.575 199.944 220.908 200.679 219.189C206.02 206.902 206.02 206.902 210 202.923Z" fill="#171515"/>
<path d="M264.031 186.851C269.379 190.593 272.435 193.026 273.711 199.574C274.035 207.497 273.881 210.613 268.625 216.917C261.997 221.407 256.475 222.422 248.5 222.165C242.301 216.784 240.175 210.714 238 202.923C243.4 198.954 245.739 197.579 252.547 198.221C254.099 198.618 255.651 199.015 257.25 199.424C257.827 202.31 258.405 205.197 259 208.171C253.802 207.305 253.802 207.305 248.5 206.421C249.077 207.576 249.655 208.73 250.25 209.92C253.715 209.92 257.18 209.92 260.75 209.92C261.954 205.803 261.954 205.803 262.5 201.173C259.496 195.441 259.496 195.441 253.641 194.395C245.138 194.125 238.808 196.291 231 199.424C228.667 194.759 229.826 192.135 231 187.179C242.441 183.367 252.942 180.848 264.031 186.851Z" fill="#F3F0EE"/>
<path d="M210 202.923C212.873 208.666 210.908 214.163 210 220.416C208.267 220.993 206.535 221.571 204.75 222.165C204.876 223.241 205.003 224.317 205.133 225.425C205.295 226.839 205.458 228.253 205.625 229.709C205.787 231.11 205.95 232.51 206.117 233.953C206.5 237.909 206.5 237.909 206.5 243.157C207.655 243.157 208.81 243.157 210 243.157C209.14 254.293 208.256 265.361 206.5 276.395C197.752 275.562 192.538 272.841 185.5 267.648C186.544 258.256 188.749 249.956 191.953 241.08C192.413 239.791 192.872 238.503 193.346 237.175C203.488 209.433 203.488 209.433 210 202.923Z" fill="#F4F3F2"/>
<path d="M259 225.664C264.796 226.663 267.552 228.078 271.25 232.661C272.85 237.335 272.85 237.335 274.094 242.72C274.513 244.479 274.933 246.238 275.365 248.05C277.592 259.047 278.492 269.484 278.359 280.659C278.351 281.938 278.344 283.218 278.335 284.537C278.315 287.654 278.284 290.771 278.25 293.888C273.63 293.888 269.01 293.888 264.25 293.888C264.215 292.194 264.181 290.5 264.145 288.755C264.011 282.437 263.856 276.119 263.695 269.8C263.628 267.072 263.567 264.344 263.512 261.616C263.431 257.681 263.33 253.747 263.225 249.813C263.194 248 263.194 248 263.163 246.151C262.94 238.73 261.683 232.581 259 225.664Z" fill="#F4F3F3"/>
<path d="M269.5 220.416C275.616 222.065 277.909 223.428 281.6 228.691C291.406 248.498 296.93 267.985 295.75 290.389C290.552 291.255 290.552 291.255 285.25 292.139C283.066 282.686 281.56 273.307 280.608 263.661C279.072 248.313 276.465 235.233 267.75 222.165C268.328 221.588 268.905 221.011 269.5 220.416Z" fill="#F3F2F1"/>
<path d="M248.501 250.155C252.543 250.155 256.586 250.155 260.751 250.155C261.131 271.756 259.993 293.307 259.001 314.88C256.402 315.746 256.402 315.746 253.751 316.629C253.173 317.784 252.596 318.938 252.001 320.128C250.777 315.614 249.578 311.095 248.391 306.571C248.043 305.294 247.694 304.018 247.335 302.703C244.332 291.117 244.332 291.117 246.751 285.141C248.483 284.564 250.216 283.987 252.001 283.392C251.141 272.256 250.257 261.188 248.501 250.155Z" fill="#F0EFEF"/>
<path d="M271.25 211.669C272.344 214.84 272.344 214.84 273 218.667C271.267 221.264 271.267 221.264 269.5 223.915C270.387 225.126 270.387 225.126 271.291 226.361C272.072 227.502 272.852 228.643 273.656 229.819C274.428 230.915 275.199 232.011 275.994 233.14C282.041 245.926 282.526 260.952 283.719 274.864C283.87 276.537 284.021 278.21 284.177 279.934C284.543 284.002 284.901 288.07 285.25 292.139C284.095 291.561 282.94 290.984 281.75 290.389C280.595 291.544 279.44 292.698 278.25 293.888C278.132 292.225 278.132 292.225 278.012 290.528C277.794 258.509 277.794 258.509 267.032 229.627C264.091 227.026 264.091 227.026 259 225.664C258.422 226.819 257.845 227.973 257.25 229.163C257.25 227.431 257.25 225.699 257.25 223.915C253.785 223.915 250.32 223.915 246.75 223.915C247.328 222.76 247.905 221.606 248.5 220.416C251.954 220.071 255.408 219.727 258.863 219.398C264.229 218.319 267.392 215.405 271.25 211.669Z" fill="#2E2B2A"/>
<path d="M216.891 283.064C222.25 283.392 222.25 283.392 225.75 286.891C230.397 287.879 235.01 288.181 239.75 288.64C240.328 290.949 240.905 293.258 241.5 295.637C230.862 301.309 221.928 301.467 210 300.885C209.953 298.298 209.919 295.71 209.891 293.123C209.87 291.682 209.85 290.241 209.829 288.756C210.101 282.997 211.037 283.437 216.891 283.064Z" fill="#EEEDEE"/>
<path d="M257.25 199.424C257.828 202.31 258.405 205.197 259 208.171C253.802 207.305 253.802 207.305 248.5 206.421C249.078 207.576 249.655 208.73 250.25 209.92C251.874 209.92 253.498 209.92 255.172 209.92C258.781 209.92 262.391 209.92 266 209.92C265.422 210.497 264.845 211.075 264.25 211.669C265.405 212.247 266.56 212.824 267.75 213.419C266 218.667 266 218.667 262.062 220.744C256.976 222.246 253.734 223.104 248.5 222.165C242.622 216.457 240.182 210.738 238 202.923C245.051 197.74 248.801 197.263 257.25 199.424Z" fill="#EBE7E3"/>
<path d="M182 274.645C187.452 275.833 192.24 277.691 197.312 280.003C198.711 280.636 200.109 281.27 201.55 281.923C202.606 282.408 203.662 282.892 204.75 283.392C204.172 288.01 203.595 292.628 203 297.387C193.613 296.636 187.335 295.032 180.25 288.64C179.461 283.009 179.453 279.737 182 274.645Z" fill="#F4F3F3"/>
<path d="M297.5 278.144C304.031 287.937 304.977 298.183 304.5 309.632C303.345 309.055 302.19 308.477 301 307.883C298.597 307.762 296.187 307.735 293.781 307.773C290.425 307.827 290.425 307.827 287 307.883C286.422 304.996 285.845 302.11 285.25 299.136C288.137 298.559 291.025 297.981 294 297.387C294 296.232 294 295.078 294 293.888C291.113 293.888 288.225 293.888 285.25 293.888C289.883 291.333 292.065 290.389 297.5 290.389C297.5 286.348 297.5 282.307 297.5 278.144Z" fill="#272424"/>
<path d="M262.499 299.136C268.274 299.136 274.049 299.136 279.999 299.136C281.537 309.898 281.537 309.898 281.749 313.131C279.999 314.88 279.999 314.88 276.445 315.112C275.019 315.108 273.593 315.103 272.124 315.099C270.699 315.103 269.273 315.108 267.804 315.112C264.249 314.88 264.249 314.88 262.499 313.131C262.252 308.459 262.425 303.817 262.499 299.136Z" fill="#E2DFDD"/>
<path d="M281.75 288.64C282.905 289.795 284.06 290.949 285.25 292.139C289.749 293.272 289.749 293.272 294 293.888C294 295.043 294 296.197 294 297.387C291.112 297.964 288.225 298.541 285.25 299.136C285.827 301.445 286.405 303.754 287 306.133C291.62 306.711 296.24 307.288 301 307.883C301 304.996 301 302.11 301 299.136C301.577 299.136 302.155 299.136 302.75 299.136C302.824 302.634 302.821 306.134 302.75 309.632C299.3 313.081 293.375 312.582 288.75 313.131C286.44 313.131 284.13 313.131 281.75 313.131C281.172 308.512 280.595 303.894 280 299.136C275.38 299.136 270.76 299.136 266 299.136C266 297.981 266 296.827 266 295.637C267.949 295.457 269.898 295.277 271.906 295.091C274 294.694 276.093 294.297 278.25 293.888C279.405 292.156 280.56 290.424 281.75 288.64Z" fill="#0B0908"/>
<path d="M84 355.115C84.9023 356.125 85.8047 357.135 86.7344 358.176C90.9474 362.401 90.9474 362.401 96.7969 365.173C105.447 369.842 112.85 377.806 117.25 386.603C118.405 385.448 119.56 384.294 120.75 383.104C121.188 396.443 121.188 396.443 117.25 402.347C116.846 401.185 116.442 400.024 116.026 398.827C112.521 389.34 109.465 382.709 101.5 376.107C100.056 374.808 98.6125 373.509 97.125 372.171C92.5794 368.99 89.4598 367.984 84 367.36C84 363.319 84 359.278 84 355.115Z" fill="#252425"/>
<path d="M124.25 220.416C124.828 220.416 125.405 220.416 126 220.416C126.998 238.923 123.94 256.5 120.75 274.645C119.595 272.336 118.44 270.027 117.25 267.648C116.095 269.957 114.94 272.266 113.75 274.645C110.99 269.128 113.527 264.05 115.063 258.355C115.721 255.829 116.377 253.303 117.031 250.777C117.363 249.506 117.695 248.235 118.036 246.925C120.286 238.132 122.248 229.269 124.25 220.416Z" fill="#E7E5E4"/>
<path d="M57.7496 365.611C56.3961 366.206 56.3961 366.206 55.0152 366.813C43.5728 372.972 34.9528 379.577 29.7496 391.851C28.6468 397.11 28.1363 402.228 27.9996 407.595C26.8446 407.595 25.6896 407.595 24.4996 407.595C23.3446 409.327 22.1896 411.058 20.9996 412.843C19.4194 399.152 24.2655 389.357 31.4996 377.856C39.8567 367.721 44.4268 363.005 57.7496 365.611Z" fill="#282826"/>
<path d="M274.75 215.168C281.034 216.913 283.346 218.469 287.437 223.696C291.662 231.237 292.472 236.754 292.359 245.344C292.344 246.904 292.328 248.465 292.312 250.073C292.291 251.254 292.271 252.436 292.25 253.653C287.804 246.986 284.471 239.869 280.991 232.672C278.675 227.957 276.743 224.157 273 220.416C273.577 218.684 274.155 216.952 274.75 215.168Z" fill="#3D3834"/>
<path d="M259 194.176C262.5 197.237 262.5 197.237 264.25 201.173C263.532 208.888 263.532 208.888 260.75 211.669C257.251 211.741 253.749 211.744 250.25 211.669C249.672 209.938 249.095 208.206 248.5 206.421C253.698 207.287 253.698 207.287 259 208.171C258.422 205.862 257.845 203.552 257.25 201.173C250.84 199.863 246.009 199.008 239.75 201.173C239.172 199.442 238.595 197.71 238 195.925C245.548 192.038 250.808 192.053 259 194.176Z" fill="#2D2A28"/>
<path d="M213.5 251.904C214.655 251.904 215.81 251.904 217 251.904C219.337 260.375 220.943 267.533 220.5 276.395C217.612 276.972 214.725 277.549 211.75 278.144C211.427 259.674 211.427 259.674 213.5 251.904Z" fill="#E6E6E7"/>
<path d="M210 244.907C210.578 246.639 211.155 248.37 211.75 250.155C213.483 250.732 215.215 251.309 217 251.904C215.845 251.904 214.69 251.904 213.5 251.904C212.922 260.563 212.345 269.222 211.75 278.144C210.017 277.567 208.285 276.989 206.5 276.395C206.747 272.458 207.004 268.522 207.266 264.587C207.408 262.395 207.55 260.203 207.696 257.945C208.119 253.333 208.675 249.314 210 244.907Z" fill="#201F1E"/>
<path d="M259 225.664C264.675 226.642 267.629 228.136 271.25 232.661C271.25 233.816 271.25 234.97 271.25 236.16C270.095 236.16 268.94 236.16 267.75 236.16C267.172 235.583 266.595 235.005 266 234.411C266 248.265 266 262.12 266 276.395C265.422 276.395 264.845 276.395 264.25 276.395C264.215 275.231 264.181 274.067 264.145 272.868C263.977 267.556 263.786 262.245 263.594 256.933C263.54 255.102 263.485 253.271 263.43 251.385C263.082 242.222 262.646 234.227 259 225.664Z" fill="#D4D3D1"/>
<path d="M271.25 211.669C272.344 214.84 272.344 214.84 273 218.667C271.267 221.264 271.267 221.264 269.5 223.915C270.078 225.069 270.655 226.224 271.25 227.413C267.208 226.836 263.165 226.259 259 225.664C258.422 226.819 257.845 227.973 257.25 229.163C257.25 227.431 257.25 225.699 257.25 223.915C253.785 223.915 250.32 223.915 246.75 223.915C247.328 222.76 247.905 221.606 248.5 220.416C251.954 220.071 255.408 219.727 258.863 219.398C264.229 218.319 267.392 215.405 271.25 211.669Z" fill="#1A1917"/>
<path d="M295.749 248.405C296.327 248.405 296.904 248.405 297.499 248.405C298.24 254.085 298.915 259.772 299.577 265.461C299.788 267.071 299.999 268.681 300.216 270.34C300.391 271.896 300.566 273.452 300.746 275.055C300.92 276.484 301.094 277.914 301.274 279.386C300.926 284.459 299.07 286.645 295.749 290.389C293.417 260.838 293.417 260.838 295.749 248.405Z" fill="#3D3939"/>
<path d="M283.5 299.136C283.789 300.254 284.077 301.373 284.375 302.525C286.618 306.415 286.618 306.415 290.35 306.987C293.888 307.406 297.445 307.653 301 307.883C301 304.996 301 302.11 301 299.136C301.578 299.136 302.155 299.136 302.75 299.136C302.824 302.634 302.821 306.134 302.75 309.632C299.3 313.081 293.375 312.582 288.75 313.131C286.44 313.131 284.13 313.131 281.75 313.131C282.328 308.512 282.905 303.894 283.5 299.136Z" fill="#131110"/>
<path d="M299.25 295.637C299.25 299.101 299.25 302.565 299.25 306.133C294.63 306.133 290.01 306.133 285.25 306.133C285.25 303.824 285.25 301.515 285.25 299.136C295.312 295.637 295.312 295.637 299.25 295.637Z" fill="#D4D2D1"/>
<path d="M52.8281 634.899C54.1399 634.907 55.4517 634.914 56.8032 634.923C60.0355 634.943 63.2678 634.975 66.5 635.008C66.5 635.585 66.5 636.163 66.5 636.757C55.2388 637.623 55.2388 637.623 43.75 638.507C46.6375 639.084 49.525 639.661 52.5 640.256C52.5 640.833 52.5 641.411 52.5 642.005C50.2983 642.041 48.0966 642.077 45.8281 642.115C44.5897 642.135 43.3512 642.155 42.0752 642.176C38.5 642.005 38.5 642.005 33.25 640.256C33.25 639.101 33.25 637.947 33.25 636.757C39.8353 634.563 45.9762 634.821 52.8281 634.899Z" fill="#373636"/>
<path d="M210 202.923C212.873 208.666 210.908 214.163 210 220.416C206.535 221.571 203.07 222.725 199.5 223.915C200.582 221.068 201.679 218.226 202.781 215.387C203.39 213.804 203.999 212.221 204.627 210.59C206.5 206.421 206.5 206.421 210 202.923Z" fill="#CCC9C8"/>
<path d="M53.1562 364.189C54.6722 364.658 56.1881 365.127 57.75 365.611C56.2747 366.307 56.2747 366.307 54.7695 367.018C50.4362 369.273 46.4827 371.841 42.4375 374.576C41.0389 375.519 39.6402 376.461 38.1992 377.432C37.1435 378.149 36.0877 378.867 35 379.605C36.0865 373.638 36.9557 372.393 41.4531 367.688C47.25 363.861 47.25 363.861 53.1562 364.189Z" fill="#212122"/>
<path d="M246.75 286.891C247.328 291.509 247.905 296.127 248.5 300.885C247.345 300.308 246.19 299.731 245 299.136C245 297.981 245 296.827 245 295.637C243.845 295.637 242.69 295.637 241.5 295.637C240.922 293.328 240.345 291.019 239.75 288.64C235.13 288.64 230.51 288.64 225.75 288.64C225.75 288.063 225.75 287.485 225.75 286.891C240.75 284.642 240.75 284.642 246.75 286.891Z" fill="#353132"/>
<path d="M43.75 636.757C46.8841 636.616 50.0201 636.514 53.1562 636.429C55.7753 636.338 55.7753 636.338 58.4473 636.245C59.9497 636.414 61.4521 636.583 63 636.757C64.155 638.489 65.31 640.221 66.5 642.005C58.0416 642.151 50.3354 641.922 42 640.256C42.5775 639.101 43.155 637.947 43.75 636.757Z" fill="#10100F"/>
<path d="M187.25 390.101C187.828 390.101 188.405 390.101 189 390.101C190.348 400.714 190.92 410.892 190.75 421.589C190.172 421.589 189.595 421.589 189 421.589C188.422 418.126 187.845 414.662 187.25 411.093C186.672 411.093 186.095 411.093 185.5 411.093C185.453 408.251 185.419 405.408 185.391 402.565C185.37 400.982 185.35 399.399 185.329 397.768C185.5 393.6 185.5 393.6 187.25 390.101Z" fill="#D8D6D5"/>
<path d="M210 288.64C210 292.104 210 295.567 210 299.136C200.156 301.104 200.156 301.104 194.25 299.136C194.828 297.981 195.405 296.827 196 295.637C199.465 296.503 199.465 296.503 203 297.387C203 295.655 203 293.923 203 292.139C208.25 288.64 208.25 288.64 210 288.64Z" fill="#292625"/>
<path d="M276.5 216.917C282.073 218.574 284.79 219.829 288.422 224.461C290.608 229.407 290.958 232.572 290.5 237.909C285.377 231.252 280.265 224.444 276.5 216.917Z" fill="#C7C3C1"/>
<path d="M113.75 383.104C114.905 384.259 116.06 385.413 117.25 386.603C118.405 385.448 119.56 384.294 120.75 383.104C121.187 396.443 121.187 396.443 117.25 402.347C114.76 395.659 113.329 390.254 113.75 383.104Z" fill="#2A2727"/>
<path d="M274.75 215.168C279.237 217.41 280.889 219.645 283.5 223.915C283.828 228.725 283.828 228.725 283.5 232.661C282.417 231.29 281.334 229.919 280.219 228.507C276.677 223.97 276.677 223.97 273 220.416C273.578 218.684 274.155 216.952 274.75 215.168Z" fill="#33302C"/>
<path d="M210 244.907C210.578 246.639 211.155 248.37 211.75 250.155C213.483 250.732 215.215 251.309 217 251.904C215.845 251.904 214.69 251.904 213.5 251.904C213.5 254.79 213.5 257.677 213.5 260.651C211.767 260.073 210.035 259.496 208.25 258.901C208.828 254.283 209.405 249.665 210 244.907Z" fill="#363736"/>
<path d="M299.25 299.136C299.25 301.445 299.25 303.754 299.25 306.133C295.208 306.133 291.165 306.133 287 306.133C287 304.979 287 303.824 287 302.635C295.312 299.136 295.312 299.136 299.25 299.136Z" fill="#F5F5F1"/>
<path d="M185.5 255.403C187.25 260.651 187.25 260.651 187.25 267.648C188.405 268.803 189.56 269.957 190.75 271.147C187.863 272.301 184.975 273.456 182 274.645C182.247 272.093 182.504 269.542 182.766 266.992C182.908 265.571 183.05 264.151 183.196 262.687C183.75 258.901 183.75 258.901 185.5 255.403Z" fill="#2C2A27"/>
<path d="M269.5 220.416C273.831 222.148 273.831 222.148 278.25 223.915C277.095 226.224 275.94 228.533 274.75 230.912C272.44 228.026 270.13 225.139 267.75 222.165C268.328 221.588 268.905 221.011 269.5 220.416Z" fill="#E8E8E7"/>
<path d="M117.25 414.592C118.983 414.592 120.715 414.592 122.5 414.592C122.5 417.478 122.5 420.365 122.5 423.339C121.345 423.339 120.19 423.339 119 423.339C117.845 425.071 116.69 426.802 115.5 428.587C116.078 423.968 116.655 419.35 117.25 414.592Z" fill="#DDDDDF"/>
<path d="M248.5 206.421C252.542 206.421 256.585 206.421 260.75 206.421C260.75 208.153 260.75 209.885 260.75 211.669C257.285 211.669 253.82 211.669 250.25 211.669C249.672 209.937 249.095 208.206 248.5 206.421Z" fill="#191714"/>
<path d="M250.25 194.176C250.828 195.331 251.405 196.485 252 197.675C247.958 198.829 243.915 199.984 239.75 201.173C239.172 199.441 238.595 197.71 238 195.925C242.31 193.771 245.489 194.051 250.25 194.176Z" fill="#201C1B"/>
<path d="M143.5 612.267C143.5 617.515 143.5 617.515 141.203 619.94C138.469 622.047 135.734 624.154 133 626.261C133.61 620.566 134.787 619.231 139.234 615.328C140.642 614.318 142.05 613.307 143.5 612.267Z" fill="#282828"/>
<path d="M84 355.115C86.9905 357.954 89.9053 360.876 92.75 363.861C92.75 365.016 92.75 366.17 92.75 367.36C89.8625 367.36 86.975 367.36 84 367.36C84 363.319 84 359.278 84 355.115Z" fill="#151514"/>
<path d="M246.75 220.416C251.37 220.416 255.99 220.416 260.75 220.416C260.75 221.571 260.75 222.725 260.75 223.915C261.905 224.492 263.06 225.069 264.25 225.664C262.517 225.664 260.785 225.664 259 225.664C258.422 226.819 257.845 227.973 257.25 229.163C257.25 227.431 257.25 225.699 257.25 223.915C253.785 223.915 250.32 223.915 246.75 223.915C246.75 222.76 246.75 221.606 246.75 220.416Z" fill="#2C2926"/>
</svg>
