<svg width="219" height="653" viewBox="0 0 219 653" fill="none" xmlns="http://www.w3.org/2000/svg">
<path d="M95.4065 0.187368C96.7293 0.0946209 96.7293 0.0946209 98.0788 0C101.952 0.958667 102.705 3.4176 104.724 6.75721C105.743 8.82772 106.711 10.9239 107.631 13.04C108.423 14.8406 108.423 14.8406 109.231 16.6775C109.505 17.3064 109.779 17.9353 110.062 18.5833C121.613 45.0316 135.176 70.2901 149.46 95.3544C149.8 95.9516 150.14 96.5487 150.491 97.1639C154.317 103.866 158.209 110.522 162.231 117.109C162.587 117.693 162.942 118.278 163.309 118.88C165.002 121.659 166.707 124.43 168.43 127.19C169.034 128.175 169.638 129.159 170.26 130.173C170.792 131.028 171.325 131.883 171.873 132.764C173.295 135.673 173.77 138.271 174.157 141.471C174.999 140.966 175.842 140.461 176.709 139.94C181.178 138.026 183.626 137.942 188.452 138.409C190.941 139.557 190.941 139.557 192.536 141.471C192.883 143.511 193.224 145.552 193.557 147.594C194.215 148.19 194.873 148.786 195.551 149.4C198.29 152.383 198.44 154.586 198.918 158.565C199.147 160.357 199.147 160.357 199.38 162.185C199.48 163.095 199.58 164.006 199.684 164.944C201.421 164.912 201.421 164.912 203.194 164.88C206.831 164.944 206.831 164.944 207.852 165.964C207.957 167.08 208.063 168.195 208.171 169.345C208.978 173.667 209.897 174.253 212.958 177.19C214.144 178.829 215.272 180.511 216.34 182.229C216.883 183.081 217.427 183.932 217.987 184.809C219.346 188.014 219.304 189.259 218.063 192.499C215.773 195.26 213.286 197.72 210.748 200.253C208.631 202.478 208.631 202.478 208.969 204.869C209.961 207.06 209.961 207.06 212.064 209.848C213.979 212.91 213.979 212.91 214.042 215.142C212.435 217.883 210.748 218.804 207.852 220.054C205.172 220.118 205.172 220.118 202.747 219.033C199.684 214.071 199.684 214.071 199.684 210.869C199.01 210.869 198.336 210.869 197.641 210.869C197.494 211.858 197.347 212.847 197.195 213.867C196.62 216.992 196.62 216.992 195.599 218.013C195.261 220.045 194.928 222.078 194.629 224.116C192.852 236.171 189.886 249.921 180.431 258.516C175.008 261.834 168.137 262.734 161.888 263.384C161.201 263.457 160.515 263.531 159.807 263.607C157.837 263.802 155.864 263.963 153.891 264.121C152.829 264.398 151.766 264.674 150.672 264.958C150.209 265.811 149.745 266.663 149.268 267.542C147.609 270.061 147.609 270.061 145.726 270.524C143.303 270.684 140.912 270.722 138.483 270.699C132.401 270.657 132.401 270.657 126.545 272.062C124.586 274.974 125.058 277.319 125.599 280.679C126.627 285.479 127.964 290.168 129.357 294.874C132.48 305.68 135.297 316.537 137.923 327.475C139.281 333.046 140.773 338.466 142.667 343.88C144.305 348.635 145.031 352.697 145.311 357.702C145.783 362.825 145.783 362.825 148.383 367.054C150.514 368.566 150.514 368.566 152.742 369.817C156.65 372.299 158.365 376.264 159.432 380.702C161.103 390.982 158.787 400.366 156.16 410.26C155.786 411.711 155.412 413.162 155.039 414.612C152.265 425.333 149.291 435.995 146.163 446.617C145.383 449.289 144.639 451.969 143.907 454.655C143.57 455.886 143.57 455.886 143.225 457.142C142.645 459.347 142.096 461.56 141.558 463.776C141.387 464.462 141.216 465.147 141.04 465.853C140.552 467.814 140.078 469.777 139.604 471.741C137.829 476.913 134.986 479.995 130.634 483.167C126.636 486.513 125.765 489.521 125.145 494.584C125.047 495.347 124.948 496.11 124.846 496.896C124.577 499.185 124.346 501.475 124.124 503.769C122.169 521.032 122.169 521.032 117.998 525.201C117.472 527.502 117.042 529.825 116.658 532.153C115.29 540.141 113.438 547.967 111.399 555.809C111.072 557.116 111.072 557.116 110.739 558.449C110.539 559.221 110.339 559.994 110.133 560.79C109.793 563.22 110.033 564.741 110.85 567.044C112.503 569.207 112.503 569.207 114.488 571.253C117.998 574.995 117.998 574.995 117.998 577.249C119.159 577.178 120.32 577.107 121.516 577.034C126.624 577.036 130.61 578.653 135.228 580.694C136.002 581.017 136.776 581.341 137.574 581.674C143.212 584.081 143.212 584.081 145.567 586.434C147.418 594.358 144.007 600.806 140.481 607.663C138.403 610.953 136.087 613.324 133.314 616.03C132.266 619.171 132.121 621.604 131.974 624.897C131.521 630.484 130.732 635.039 127.187 639.503C124.658 641.36 122.86 642.414 120.04 643.586C119.194 643.964 118.347 644.343 117.475 644.734C111.136 647.337 104.427 649.241 97.5763 647.668C95.1396 645.175 94.5259 644.177 94.4492 640.651C95.5341 637.462 95.5341 637.462 98.6093 634.799C102.011 631.517 102.412 628.892 102.562 624.271C102.558 623.033 102.558 623.033 102.554 621.771C102.575 620.923 102.596 620.074 102.618 619.2C102.666 617.123 102.677 615.046 102.682 612.969C101.738 612.686 100.794 612.403 99.8218 612.112C96.9508 611.071 95.4653 610.343 93.3005 608.313C90.623 605.673 90.623 605.673 87.3655 604.804C87.2155 605.718 87.2155 605.718 87.0624 606.65C85.9958 612.835 84.7309 618.968 83.3451 625.088C83.1842 625.828 83.0233 626.568 82.8575 627.33C81.8882 631.52 80.8613 635.081 78.1759 638.483C75.9423 639.312 75.9423 639.312 74.0916 639.503C74.0653 640.131 74.039 640.758 74.0118 641.405C73.5352 648.193 73.5352 648.193 71.156 650.729C65.6571 653.316 60.5288 652.958 54.5636 652.962C53.5343 652.974 52.505 652.987 51.4445 653C45.0568 653.012 39.416 652.425 33.2487 650.729C32.2276 649.709 32.2276 649.709 31.7171 645.69C31.7275 639.218 35.5282 635.196 39.3751 630.318C39.7121 629.645 40.049 628.971 40.3962 628.277C38.7114 627.94 37.0267 627.604 35.2908 627.257C34.8694 620.833 35.6468 616.35 38.007 610.397C39.8114 605.713 41.3759 600.96 42.9489 596.193C46.4908 585.468 46.4908 585.468 47.9266 581.415C48.3057 580.335 48.6848 579.255 49.0753 578.142C49.4017 577.235 49.7282 576.327 50.0645 575.392C50.8551 573.006 50.8551 573.006 49.5859 570.105C46.4034 567.606 43.8866 566.132 39.9495 565.13C33.2775 563.024 29.259 558.186 25.0801 552.756C24.2167 551.935 23.3532 551.114 22.4636 550.268C19.3679 547.015 17.531 543.856 16.3691 539.493C14.0863 531.072 8.56918 524.885 2.36123 518.906C0.574353 517.036 0.574353 517.036 0 514.485C0.574353 511.934 0.574353 511.934 2.6165 509.573C7.67198 506.731 11.9854 507.343 17.3582 508.808C18.5586 509.166 19.759 509.524 20.9958 509.892C22.5993 510.116 24.2073 510.307 25.818 510.47C26.6381 510.555 27.4582 510.64 28.3031 510.728C28.9243 510.789 29.5455 510.85 30.1855 510.913C30.2107 506.735 30.2292 502.558 30.2416 498.38C30.2467 496.959 30.2537 495.537 30.2625 494.116C30.2749 492.074 30.2801 490.032 30.2852 487.99C30.2905 486.761 30.2959 485.532 30.3014 484.265C30.3906 481.377 30.3906 481.377 29.1644 479.276C29.037 476.854 28.985 474.429 28.9729 472.004C28.9585 470.697 28.944 469.389 28.9291 468.042C29.1326 464.518 29.7391 461.557 30.6673 458.172C31.8433 453.005 32.1566 447.674 32.6743 442.408C33.5779 433.666 34.7149 425.249 36.7546 416.699C37.6651 412.387 37.9676 408.193 36.8264 403.882C35.5014 398.297 35.3079 392.417 37.9711 387.298C38.7714 386.33 39.5717 385.361 40.3962 384.364C41.4486 382.754 42.4903 381.138 43.5232 379.516C45.4616 376.494 46.5256 375.177 49.5859 373.138C49.1919 370.302 48.8726 368.43 47.093 366.145C43.3325 360.964 42.4225 353.893 41.9916 347.624C41.4437 340.745 39.3221 334.179 35.3945 328.484C32.7711 324.434 31.1215 320.268 29.3558 315.795C27.0831 310.191 24.8222 304.983 21.3787 299.976C17.4835 294.31 15.3486 288.245 13.0945 281.802C11.9675 278.398 11.9675 278.398 10.6415 276.061C8.29926 270.943 8.99947 264.309 10.6574 259.078C14.5798 250.657 20.4679 245.397 28.1433 240.465C28.4803 239.791 28.8172 239.118 29.1644 238.424C29.8383 238.424 30.5122 238.424 31.2065 238.424C30.7011 237.414 30.7011 237.414 30.1855 236.383C29.1746 236.046 28.1637 235.709 27.1222 235.362C27.4592 236.373 27.7962 237.383 28.1433 238.424C24.625 238.424 22.1866 238.41 19.4443 236.092C14.3665 229.73 11.126 222.01 7.62065 214.714C6.63119 212.703 6.63119 212.703 4.92588 210.115C3.63757 207.807 3.63757 207.807 3.63757 203.725C4.64843 203.725 5.6593 203.725 6.70079 203.725C6.55337 203.13 6.40596 202.536 6.25407 201.923C4.00126 191.978 2.82694 182.542 8.04893 173.371C12.6321 167.214 19.4974 162.261 27.1222 160.862C35.582 159.942 42.7811 159.616 49.6537 165.095C57.6526 172.751 57.6526 172.751 59.8245 177.39C60.1522 177.998 60.48 178.605 60.8177 179.232C63.4267 180.06 63.4267 180.06 65.923 180.252C76.207 209.547 76.207 209.547 71.5389 220.628C71.0335 221.449 70.5281 222.27 70.0073 223.116C70.0073 224.126 70.0073 225.136 70.0073 226.177C74.0045 228.604 74.0045 228.604 78.5229 229.044C85.7922 226.835 92.6109 221.79 96.9381 215.589C103.717 206.07 115.429 200.313 125.226 194.296C138.139 186.479 138.139 186.479 147.609 175.149C148.514 174.434 149.42 173.718 150.353 172.981C153.122 169.54 152.905 168.789 152.65 164.561C152.4 160.059 152.776 157.964 155.777 154.547C156.773 153.563 157.786 152.596 158.841 151.676C157.53 148.834 156.121 146.65 154.014 144.341C150.386 140.208 147.281 135.79 144.163 131.265C142.901 129.446 141.639 127.627 140.378 125.808C139.724 124.863 139.07 123.918 138.397 122.945C136.372 120.033 134.329 117.134 132.281 114.239C123.283 101.491 114.655 88.6003 106.766 75.1346C106.026 73.8862 106.026 73.8862 105.271 72.6126C96.1055 56.9377 90.6242 40.3512 85.3234 23.0861C84.8456 21.581 84.8456 21.581 84.3582 20.0454C84.0765 19.1452 83.7948 18.245 83.5046 17.3176C83.2618 16.5481 83.0189 15.7786 82.7687 14.9857C81.9422 11.5644 82.2168 9.06148 83.2813 5.73665C87.1566 1.96254 90.0682 0.448605 95.4065 0.187368Z" fill="#020202"/>
</svg>
